<svg viewBox="0 0 787.01 249.79" xmlns="http://www.w3.org/2000/svg"><circle cx="123.81" cy="123.81" fill="#532e1f" r="121.34"/><path d="m123.81 6.88a116.35 116.35 0 0 1 45.52 9.18 117.33 117.33 0 0 1 62.23 62.24 117.42 117.42 0 0 1 0 91 117.29 117.29 0 0 1 -62.23 62.23 116.77 116.77 0 0 1 -110.89-10.75 117.24 117.24 0 0 1 -42.38-51.45 116.89 116.89 0 0 1 107.75-162.45m0-6.88a123.81 123.81 0 1 0 123.81 123.81 123.81 123.81 0 0 0 -123.81-123.81z" fill="#f1c500"/><path d="m155.37 64.97v25.27h7.96l-10.89 43.98-16.48-69.25h-24.3l-16.48 69.25-10.89-43.98h7.96v-25.27h-44.79v25.28h6.45l27.4 106.78h25.11l17.39-67.79 17.4 67.79h25.1l27.4-106.78h6.45v-25.28z" fill="#f1c500"/><g fill="#532e1f"><path d="m396.75 129.84-13.74 65.68h19.34l13.75-65.68z"/><path d="m437.58 155.32a21.81 21.81 0 0 1 4.66-5.62 19.67 19.67 0 0 1 6-3.54 20.46 20.46 0 0 1 7.16-1.25 19.64 19.64 0 0 1 3.73.31 15.2 15.2 0 0 1 2.63.73 9.45 9.45 0 0 1 1.75.89c.56.37 1.08.72 1.55 1a14.67 14.67 0 0 0 1.54.93 5 5 0 0 0 2.33.55 5.75 5.75 0 0 0 3.13-.83 11.08 11.08 0 0 0 1.81-1.4l7.83-7.79-1.03-1.3a19.88 19.88 0 0 0 -3.88-3.64 24.53 24.53 0 0 0 -5.06-2.79 32.49 32.49 0 0 0 -6.12-1.8 38 38 0 0 0 -7.22-.65 46.66 46.66 0 0 0 -15.12 2.45 44.19 44.19 0 0 0 -12.89 6.88 42.35 42.35 0 0 0 -9.69 10.55 39.51 39.51 0 0 0 -5.48 13.41 35.18 35.18 0 0 0 -.43 13.29 24.12 24.12 0 0 0 4.59 10.77 23.68 23.68 0 0 0 9.37 7.14 34 34 0 0 0 13.7 2.55 43.2 43.2 0 0 0 15.43-2.62 35.77 35.77 0 0 0 12.28-7.85l1.35-1.31-5.89-7.32a3.9 3.9 0 0 0 -1.6-1.15 5.32 5.32 0 0 0 -3.86.11 9.8 9.8 0 0 0 -1.77 1 22.62 22.62 0 0 1 -2.8 1.67 16.38 16.38 0 0 1 -2.69 1.07 16.75 16.75 0 0 1 -2.95.58 33.71 33.71 0 0 1 -3.62.18 13.84 13.84 0 0 1 -5.74-1.15 10.23 10.23 0 0 1 -4.05-3.28 12.72 12.72 0 0 1 -2.14-5.46 21.4 21.4 0 0 1 .37-7.73 25 25 0 0 1 2.82-7.58z"/><path d="m531.86 129.85-5.4 25.81h-22.77l5.4-25.82h-19.35l-13.74 65.68h19.35l5.46-26.1h22.78l-5.47 26.11h19.35l13.74-65.68z"/><path d="m559.49 129.85-13.74 65.68h19.35l13.74-65.68z"/><path d="m629 192.42a47.93 47.93 0 0 0 6.19-3.13l.85-.52 6.1-29.16h-27.43l-2 9.64a3.79 3.79 0 0 0 .85 3.42 4.46 4.46 0 0 0 3.44 1.33h4.31l-1.25 6c-1.1.34-2.24.63-3.4.87a27.49 27.49 0 0 1 -5.31.46 16.88 16.88 0 0 1 -6.64-1.22 11.06 11.06 0 0 1 -4.52-3.47 12.74 12.74 0 0 1 -2.32-5.67 21.85 21.85 0 0 1 .36-8 25.15 25.15 0 0 1 2.77-7.46 21.35 21.35 0 0 1 4.54-5.62 19.86 19.86 0 0 1 6-3.6 20.68 20.68 0 0 1 7.29-1.28 34.42 34.42 0 0 1 3.88.2 18.64 18.64 0 0 1 3.08.62 16.29 16.29 0 0 1 2.71 1.08c.91.47 1.88 1 2.87 1.66a6.4 6.4 0 0 0 6.65.4 8.91 8.91 0 0 0 2.45-1.89l7-7.69-1.13-1.24a24.1 24.1 0 0 0 -4.12-3.57 27.1 27.1 0 0 0 -5.39-2.81 36.37 36.37 0 0 0 -6.64-1.84 44.82 44.82 0 0 0 -7.95-.67 48.7 48.7 0 0 0 -15.54 2.44 44.36 44.36 0 0 0 -13 6.89 41 41 0 0 0 -9.61 10.57 40.55 40.55 0 0 0 -5.38 13.39 30.87 30.87 0 0 0 -.07 13.39 24.94 24.94 0 0 0 5.33 10.74 26.47 26.47 0 0 0 9.9 7.08 34.78 34.78 0 0 0 13.6 2.54 74.35 74.35 0 0 0 7.81-.39 54.32 54.32 0 0 0 7.13-1.24 45.12 45.12 0 0 0 6.59-2.25z"/><path d="m694.66 129.86h-18.31l-40.86 65.67h15.18a8.32 8.32 0 0 0 4.55-1.29 8.74 8.74 0 0 0 3-2.94l5.49-9.62h22.24l1.41 9.28a5.16 5.16 0 0 0 1.95 3.33 6.69 6.69 0 0 0 4.23 1.25h14.46l-13.09-64.28zm-23.17 38.14 8-14c.56-.89 1.18-1.93 1.84-3.1.15 1 .29 1.84.41 2.6l2.11 14.5z"/><path d="m769.56 129.86-7.21 34.44c-.07.37-.15.75-.22 1.14l-20.66-32.58a10.22 10.22 0 0 0 -1.09-1.39 4.63 4.63 0 0 0 -1.41-1 5.38 5.38 0 0 0 -1.69-.48h-.07a16.14 16.14 0 0 0 -1.84-.09h-9.82l-13.75 65.68h17.46l7.29-34.86c0-.21.09-.42.13-.64l20.5 32.31a6.37 6.37 0 0 0 2.71 2.52 8.78 8.78 0 0 0 3.65.67h9.74l13.72-65.72z"/><path d="m369.91 129.84a6.72 6.72 0 0 0 -2.46.45 7.22 7.22 0 0 0 -2.19 1.37 12.55 12.55 0 0 0 -1.89 2.24l-30.07 45c-1.08 1.6-2.17 3.27-3.23 5l-.33.53v-.1c-.34-1.7-.73-3.36-1.14-4.91l-11.29-45.18a7.35 7.35 0 0 0 -1-2.35 4.44 4.44 0 0 0 -1.79-1.52 5.48 5.48 0 0 0 -2.35-.48h-18.17l-19.41 92.79h20.41l10.79-51.54 9.53 36.74c0 .18.09.34.14.51l1.76 6.74h12.26l3.84-5.46a14.32 14.32 0 0 0 1.14-1.47l2.5-3.7.77-1.09 21.65-32-10.73 51.32h20.45l19.42-92.79z"/><path d="m322.65 62.25 2.47 54.05h18.8l43.9-91.3h-16.54a9.68 9.68 0 0 0 -5.41 2 10 10 0 0 0 -3.37 4l-20 45.39c-.06.14-.13.29-.19.44v-.15l-2.06-41.44-.55-10.24h-17.59l-3.79 8.48-20.51 42.52-.32.68v-.28l-.49-45.52c0-3.38-2.54-6-6.61-6h-15.96l3.65 91.4h18.64z"/><path d="m367.58 116.23h46.37l3.13-14.94-27.03-.01 2.26-10.78h20.7l3.04-14.52h-20.7l2.19-10.48h27.03l3.12-14.95h-46.37z"/><path d="m452.75 100.66a10.33 10.33 0 0 1 -5.66 1.37 12.7 12.7 0 0 1 -4.49-.68 18.91 18.91 0 0 1 -3.31-1.63c-1-.63-1.92-1.23-2.72-1.76a6.53 6.53 0 0 0 -6.51-.44 7 7 0 0 0 -2.41 1.8l-7.1 8 1.05 1.22a18.81 18.81 0 0 0 4.25 3.63 30 30 0 0 0 5.37 2.73 34.56 34.56 0 0 0 6.14 1.76 34 34 0 0 0 6.5.63 34.81 34.81 0 0 0 11-1.69 30.67 30.67 0 0 0 9-4.73 27.62 27.62 0 0 0 6.48-7.09 26.34 26.34 0 0 0 3.55-8.71 16.93 16.93 0 0 0 .1-7.45 12.89 12.89 0 0 0 -2.73-5.35 15.22 15.22 0 0 0 -4.55-3.54 42.8 42.8 0 0 0 -5.18-2.24c-1.72-.61-3.45-1.17-5.14-1.68a28.42 28.42 0 0 1 -4.1-1.53 6.58 6.58 0 0 1 -2.29-1.64 1.7 1.7 0 0 1 -.26-1.56 5 5 0 0 1 2.16-3.29 9.7 9.7 0 0 1 5.52-1.31 11.7 11.7 0 0 1 3.69.51 17.35 17.35 0 0 1 2.89 1.25c.9.5 1.7 1 2.41 1.37a6.07 6.07 0 0 0 6.15 0 9.77 9.77 0 0 0 2.3-2l6.33-8.12-1.09-1.09a18.51 18.51 0 0 0 -3.79-3 26.39 26.39 0 0 0 -4.69-2.23 29.81 29.81 0 0 0 -5.51-1.4 38.91 38.91 0 0 0 -6.11-.47 32.91 32.91 0 0 0 -10.63 1.66 30.72 30.72 0 0 0 -8.58 4.46 26.48 26.48 0 0 0 -6.16 6.46 21.89 21.89 0 0 0 -3.22 7.53 19.57 19.57 0 0 0 -.25 8.06 13.09 13.09 0 0 0 2.65 5.66 14.31 14.31 0 0 0 4.56 3.61 33.64 33.64 0 0 0 5.22 2.14c1.73.56 3.46 1.08 5.13 1.53a25.93 25.93 0 0 1 4.06 1.46 5.65 5.65 0 0 1 2.19 1.7 2.55 2.55 0 0 1 .24 2.07 5.93 5.93 0 0 1 -2.46 4.02z"/><path d="m492.09 116.32h19.25l10.55-50.4h18.53l3.2-15.28h-56.32l-3.2 15.28h18.53z"/><path d="m582.01 116.32 3.13-14.94h-27.03l2.26-10.79h20.7l3.03-14.52h-20.7l2.2-10.48h27.02l3.13-14.95h-46.37l-13.75 65.68z"/><path d="m607.49 116.32 4.77-22.84h2.11a3.51 3.51 0 0 1 1.69.26 1.68 1.68 0 0 1 .62.85l7.19 17.94c.7 1.73 2.42 3.8 6.6 3.8h17.15l-10.8-24.33a9.6 9.6 0 0 0 -2.05-3 30.75 30.75 0 0 0 3.16-1.72 28.5 28.5 0 0 0 5.44-4.41 24.45 24.45 0 0 0 4-5.44 23.22 23.22 0 0 0 2.25-6.23 19.11 19.11 0 0 0 .08-8.1 12.77 12.77 0 0 0 -3.93-6.7 20.14 20.14 0 0 0 -8.13-4.23 45.58 45.58 0 0 0 -12.42-1.46h-23.22l-13.74 65.68zm10.67-51h4.37c3.38 0 5.8.62 7 1.79s1.45 2.6 1 4.69a11 11 0 0 1 -1.18 3.2 8.41 8.41 0 0 1 -2.1 2.41 10.5 10.5 0 0 1 -3.31 1.59 16.45 16.45 0 0 1 -4.84.64h-4z"/><path d="m669.42 116.33 7.29-34.86c0-.21.09-.42.13-.64l20.5 32.3a6.4 6.4 0 0 0 2.71 2.53 9 9 0 0 0 3.65.67h9.74l13.74-65.68h-17.45l-7.21 34.44c-.07.36-.15.75-.22 1.14l-20.66-32.58a10.39 10.39 0 0 0 -1.08-1.39 4.88 4.88 0 0 0 -1.41-1 5.42 5.42 0 0 0 -1.64-.47h-.06a15 15 0 0 0 -1.91-.1h-9.82l-13.72 65.64z"/><path d="m422.76 232.87a13.82 13.82 0 0 1 -1.36 3.77 10.45 10.45 0 0 1 -2.24 2.82 9.71 9.71 0 0 1 -3 1.79 10.07 10.07 0 0 1 -3.65.64 8.06 8.06 0 0 1 -3.32-.62 4.92 4.92 0 0 1 -2.07-1.67 6.21 6.21 0 0 1 -1-2.7 11 11 0 0 1 .21-3.72l5.06-24.1h-9l-5 23.79a17.67 17.67 0 0 0 -.21 6.68 12 12 0 0 0 2.36 5.42 11.86 11.86 0 0 0 4.77 3.56 17.59 17.59 0 0 0 6.9 1.26 21.58 21.58 0 0 0 7.36-1.24 20.68 20.68 0 0 0 6.1-3.45 20.23 20.23 0 0 0 4.5-5.27 21.46 21.46 0 0 0 2.57-6.62l5.07-24.13h-9.05z"/><path d="m468.69 233.21c-.08.37-.15.77-.23 1.18l-14.06-23.76a5.46 5.46 0 0 0 -.51-.72 2.32 2.32 0 0 0 -.68-.54 2.68 2.68 0 0 0 -.83-.25 8 8 0 0 0 -.92 0h-4.52l-8.46 40.28h8.18l5.11-24.4c.07-.29.13-.6.19-.94l14 23.67a3.2 3.2 0 0 0 1.26 1.29 3.84 3.84 0 0 0 1.77.36h4.47l8.46-40.28h-8.17z"/><path d="m485 249.36h9.07l8.46-40.28h-9.08z"/><path d="m543.43 209.08a3.73 3.73 0 0 0 -2.14.65 4.9 4.9 0 0 0 -1.35 1.38l-14.19 23.55c-.47.78-.93 1.62-1.38 2.51a22 22 0 0 0 -.33-2.23l-4.33-23.57a3 3 0 0 0 -.91-1.62 2.92 2.92 0 0 0 -2-.67h-6.95l8.15 40.28h7.78l25.08-40.28z"/><path d="m548.7 249.36h26.59l1.56-7.41h-17.49l1.94-9.25h13.78l1.51-7.2h-13.78l1.9-9.04h17.49l1.55-7.38h-26.59z"/><path d="m617.28 212.41a11.11 11.11 0 0 0 -4.58-2.48 24.54 24.54 0 0 0 -7-.85h-12.7l-8.45 40.28h9.05l3.16-15.09h2.46a2.45 2.45 0 0 1 1.16.18 1.29 1.29 0 0 1 .49.62l5.69 12.36a3.21 3.21 0 0 0 1.22 1.42 3.64 3.64 0 0 0 2 .51h7.93l-7.46-15.46a6.32 6.32 0 0 0 -1-1.52 18.55 18.55 0 0 0 2.81-1.32 16 16 0 0 0 3.42-2.61 15.29 15.29 0 0 0 2.49-3.34 14.33 14.33 0 0 0 1.45-3.92 11.84 11.84 0 0 0 .08-4.84 7.51 7.51 0 0 0 -2.22-3.94zm-9.48 13.3a8.52 8.52 0 0 1 -2.58 1.27 11.89 11.89 0 0 1 -3.47.47h-3.55l2.34-11.15h4c2.47 0 4.2.46 5.13 1.35s1.14 2.06.79 3.73a7.61 7.61 0 0 1 -1 2.44 6.86 6.86 0 0 1 -1.66 1.89z"/><path d="m651.64 209.78a19 19 0 0 0 -12.49-.15 17.33 17.33 0 0 0 -4.8 2.62 15 15 0 0 0 -3.45 3.75 13.12 13.12 0 0 0 -1.83 4.39 11.45 11.45 0 0 0 -.16 4.79 7.58 7.58 0 0 0 1.62 3.37 8.75 8.75 0 0 0 2.76 2.15 24.42 24.42 0 0 0 3.17 1.33c1 .36 2.12.69 3.15 1a11.71 11.71 0 0 1 2.51 1 3.8 3.8 0 0 1 1.42 1.32 2.59 2.59 0 0 1 .15 1.88 5.7 5.7 0 0 1 -2.26 3.67 7.86 7.86 0 0 1 -4.67 1.3 8.14 8.14 0 0 1 -3.08-.49 9.88 9.88 0 0 1 -2.11-1.12c-.61-.43-1.14-.83-1.58-1.18a2.86 2.86 0 0 0 -3.27-.38 4.37 4.37 0 0 0 -1.05.77l-3.33 4 .41.53a11.82 11.82 0 0 0 2.33 2.24 15.1 15.1 0 0 0 3 1.7 17.81 17.81 0 0 0 3.45 1.08 19 19 0 0 0 3.8.38 18.75 18.75 0 0 0 6.3-1 17.47 17.47 0 0 0 5.1-2.8 16.28 16.28 0 0 0 5.75-9.36 10.07 10.07 0 0 0 .07-4.46 7.41 7.41 0 0 0 -1.65-3.2 9.38 9.38 0 0 0 -2.76-2.11 25.53 25.53 0 0 0 -3.16-1.37c-1.06-.39-2.11-.75-3.13-1.09a14.79 14.79 0 0 1 -2.54-1.09 4 4 0 0 1 -1.44-1.27 2.09 2.09 0 0 1 -.18-1.64 5.22 5.22 0 0 1 .68-1.69 4.58 4.58 0 0 1 1.26-1.3 6.4 6.4 0 0 1 1.88-.88 8.58 8.58 0 0 1 2.49-.33 7.73 7.73 0 0 1 2.56.36 10 10 0 0 1 1.82.85q.81.5 1.38.9a2.8 2.8 0 0 0 3 .22 3.47 3.47 0 0 0 1.15-1.07l2.91-3.93-.45-.5a11.73 11.73 0 0 0 -4.73-3.19z"/><path d="m658.95 249.36h9.07l8.46-40.28h-9.08z"/><path d="m683.08 216.65h11.92l-6.86 32.71h9.04l6.87-32.71h11.87l1.59-7.57h-32.84z"/><path d="m750.91 209.08a3.54 3.54 0 0 0 -2.12.66 5.49 5.49 0 0 0 -1.31 1.27l-9.88 12.89c-.59.76-1.11 1.5-1.57 2.21l-.15.24c-.17-.69-.39-1.43-.65-2.21l-4.52-12.89a3.66 3.66 0 0 0 -.91-1.48 2.75 2.75 0 0 0 -2-.69h-7.7l9.79 24.51-3.31 15.77h9l3.25-15.47 20.3-24.81z"/></g></svg>